HIERARCHY
ROOT hip
{
  OFFSET 0 0 0
  CHANNELS 6 Xposition Yposition Zposition Zrotation Yrotation Xrotation
  JOINT abdomen
  {
    OFFSET 0 20.6881 -0.73152
    CHANNELS 3 Zrotation Xrotation Yrotation
    JOINT chest
    {
      OFFSET 0 11.7043 -0.48768
      CHANNELS 3 Zrotation Xrotation Yrotation
      JOINT neck
      {
        OFFSET 0 22.1894 -2.19456
        CHANNELS 3 Zrotation Xrotation Yrotation
        JOINT head
        {
          OFFSET -0.24384 7.07133 1.2192
          CHANNELS 3 Zrotation Xrotation Yrotation
          JOINT leftEye
          {
            OFFSET 4.14528 8.04674 8.04672
            CHANNELS 3 Zrotation Xrotation Yrotation
            End Site
            {
              OFFSET 1 0 0
            }
          }
          JOINT rightEye
          {
            OFFSET -3.6576 8.04674 8.04672
            CHANNELS 3 Zrotation Xrotation Yrotation
            End Site
            {
              OFFSET 1 0 0
            }
          }
        }
      }
      JOINT rCollar
      {
        OFFSET -2.68224 19.2634 -4.8768
        CHANNELS 3 Zrotation Xrotation Yrotation
        JOINT rShldr
        {
          OFFSET -8.77824 -1.95073 1.46304
          CHANNELS 3 Zrotation Xrotation Yrotation
          JOINT rForeArm
          {
            OFFSET -28.1742 -1.7115 0.48768
            CHANNELS 3 Zrotation Xrotation Yrotation
            JOINT rHand
            {
              OFFSET -22.5879 0.773209 7.07136
              CHANNELS 3 Zrotation Xrotation Yrotation
              JOINT rThumb1
              {
                OFFSET -1.2192 -0.487915 3.41376
                CHANNELS 3 Zrotation Xrotation Yrotation
                JOINT rThumb2
                {
                  OFFSET -3.37035 -0.52449 3.41376
                  CHANNELS 3 Zrotation Xrotation Yrotation
                  End Site
                  {
                    OFFSET -1.78271 -1.18214 1.43049
                  }
                }
              }
              JOINT rIndex1
              {
                OFFSET -7.75947 0.938293 5.60832
                CHANNELS 3 Zrotation Xrotation Yrotation
                JOINT rIndex2
                {
                  OFFSET -2.54057 -0.884171 1.56538
                  CHANNELS 3 Zrotation Xrotation Yrotation
                  End Site
                  {
                    OFFSET -1.62519 -0.234802 1.16502
                  }
                }
              }
              JOINT rMid1
              {
                OFFSET -8.24714 1.18213 3.41376
                CHANNELS 3 Zrotation Xrotation Yrotation
                JOINT rMid2
                {
                  OFFSET -3.10165 -0.590103 1.0647
                  CHANNELS 3 Zrotation Xrotation Yrotation
                  End Site
                  {
                    OFFSET -2.48547 -0.328903 0.83742
                  }
                }
              }
              JOINT rRing1
              {
                OFFSET -8.82822 0.546677 1.51678
                CHANNELS 3 Zrotation Xrotation Yrotation
                JOINT rRing2
                {
                  OFFSET -2.60934 -0.819778 -0.0198488
                  CHANNELS 3 Zrotation Xrotation Yrotation
                  End Site
                  {
                    OFFSET -2.33842 -0.294052 0.168128
                  }
                }
              }
              JOINT rPinky1
              {
                OFFSET -8.27202 -0.0477905 -0.4584
                CHANNELS 3 Zrotation Xrotation Yrotation
                JOINT rPinky2
                {
                  OFFSET -1.82734 -0.647385 -0.700984
                  CHANNELS 3 Zrotation Xrotation Yrotation
                  End Site
                  {
                    OFFSET -1.69225 -0.51767 -0.607171
                  }
                }
              }
            }
          }
        }
      }
      JOINT lCollar
      {
        OFFSET 2.68224 19.2634 -4.8768
        CHANNELS 3 Zrotation Xrotation Yrotation
        JOINT lShldr
        {
          OFFSET 8.77824 -1.95073 1.46304
          CHANNELS 3 Zrotation Xrotation Yrotation
          JOINT lForeArm
          {
            OFFSET 28.1742 -1.7115 0.48768
            CHANNELS 3 Zrotation Xrotation Yrotation
            JOINT lHand
            {
              OFFSET 22.5879 0.773209 7.07136
              CHANNELS 3 Zrotation Xrotation Yrotation
              JOINT lThumb1
              {
                OFFSET 1.2192 -0.487915 3.41376
                CHANNELS 3 Zrotation Xrotation Yrotation
                JOINT lThumb2
                {
                  OFFSET 3.37035 -0.52449 3.41376
                  CHANNELS 3 Zrotation Xrotation Yrotation
                  End Site
                  {
                    OFFSET 1.78271 -1.18214 1.43049
                  }
                }
              }
              JOINT lIndex1
              {
                OFFSET 7.75947 0.938293 5.60832
                CHANNELS 3 Zrotation Xrotation Yrotation
                JOINT lIndex2
                {
                  OFFSET 2.54057 -0.884171 1.56538
                  CHANNELS 3 Zrotation Xrotation Yrotation
                  End Site
                  {
                    OFFSET 1.62519 -0.234802 1.16502
                  }
                }
              }
              JOINT lMid1
              {
                OFFSET 8.24714 1.18213 3.41376
                CHANNELS 3 Zrotation Xrotation Yrotation
                JOINT lMid2
                {
                  OFFSET 3.10165 -0.590103 1.0647
                  CHANNELS 3 Zrotation Xrotation Yrotation
                  End Site
                  {
                    OFFSET 2.48547 -0.328903 0.83742
                  }
                }
              }
              JOINT lRing1
              {
                OFFSET 8.82822 0.546677 1.51678
                CHANNELS 3 Zrotation Xrotation Yrotation
                JOINT lRing2
                {
                  OFFSET 2.60934 -0.819778 -0.0198488
                  CHANNELS 3 Zrotation Xrotation Yrotation
                  End Site
                  {
                    OFFSET 2.33842 -0.294052 0.168128
                  }
                }
              }
              JOINT lPinky1
              {
                OFFSET 8.27202 -0.0477905 -0.4584
                CHANNELS 3 Zrotation Xrotation Yrotation
                JOINT lPinky2
                {
                  OFFSET 1.82734 -0.647385 -0.700984
                  CHANNELS 3 Zrotation Xrotation Yrotation
                  End Site
                  {
                    OFFSET 1.69225 -0.51767 -0.607171
                  }
                }
              }
            }
          }
        }
      }
    }
  }
  JOINT rButtock
  {
    OFFSET -8.77824 4.35084 1.2192
    CHANNELS 3 Zrotation Xrotation Yrotation
    JOINT rThigh
    {
      OFFSET 0 -1.70687 -2.19456
      CHANNELS 3 Zrotation Xrotation Yrotation
      JOINT rShin
      {
        OFFSET 0 -36.8199 0.73152
        CHANNELS 3 Zrotation Xrotation Yrotation
        JOINT rFoot
        {
          OFFSET 0.73152 -45.1104 -5.12064
          CHANNELS 3 Zrotation Xrotation Yrotation
          End Site
          {
            OFFSET -1.1221 -3.69964 12.103
          }
        }
      }
    }
  }
  JOINT lButtock
  {
    OFFSET 8.77824 4.35084 1.2192
    CHANNELS 3 Zrotation Xrotation Yrotation
    JOINT lThigh
    {
      OFFSET 0 -1.70687 -2.19456
      CHANNELS 3 Zrotation Xrotation Yrotation
      JOINT lShin
      {
        OFFSET 0 -36.8199 0.73152
        CHANNELS 3 Zrotation Xrotation Yrotation
        JOINT lFoot
        {
          OFFSET -0.73152 -45.1104 -5.12064
          CHANNELS 3 Zrotation Xrotation Yrotation
          End Site
          {
            OFFSET 1.1221 -3.69964 12.103
          }
        }
      }
    }
  }
}
MOTION
Frames:	4
Frame Time:	0.00833333
-199.765 75.529 -3.99507 174.225 59.6648 -177.414 -14.7986 21.6185 14.0921 -0.696667 0.649947 3.52356 -8.35425 26.5323 -21.5939 45.6877 -55.1731 -23.4357 -0.0 0.0 0.0 -0.0 0.0 0.0 4.16614e-13 -2.86231e-13 -1.07806e-12 14.563 47.2502 82.7512 -28.4317 -35.3543 75.9325 -0.000101712 0.28797 0.0404719 -1.79477e-09 -3.82691e-08 -7.73131e-09 -3.08693e-09 -6.59821e-08 -1.33576e-08 -1.79476e-09 -3.82691e-08 -7.73131e-09 7.73091 5.47488 0.417314 -1.79476e-09 -3.82691e-08 -7.73131e-09 2.90554 0.965183 0.102902 -1.79476e-09 -3.82691e-08 -7.7313e-09 10.2786 0.731801 0.0259123 -1.79477e-09 -3.82691e-08 -7.7313e-09 2.22167 -0.733487 -0.20892 4.1657e-13 -2.86268e-13 -1.07841e-12 -54.2524 35.4826 -38.5198 25.0602 -47.8988 -99.7311 0.712219 -23.2478 3.46132 7.93119e-10 1.93703e-09 9.27109e-10 1.35507e-09 3.3863e-09 1.62295e-09 7.93119e-10 1.93703e-09 9.27109e-10 -7.73091 5.47488 -0.417314 7.93124e-10 1.93703e-09 9.27103e-10 -2.90554 0.965183 -0.102902 7.93122e-10 1.93703e-09 9.27107e-10 -10.2786 0.731801 -0.0259123 7.93131e-10 1.93703e-09 9.271e-10 -2.22167 -0.733487 0.20892 -2.03217e-16 0.0 -3.88251e-19 -9.28807 -22.8892 -15.6505 -1.73273 66.9001 1.91723 -2.59005 -2.91005 -12.5394 2.03217e-16 0.0 3.88251e-19 -6.84683 -36.9099 -0.876823 0.866087 55.103 -0.780219 -2.69855 -17.5519 -8.07951
-199.908 75.3785 -3.99446 173.98 58.686 -177.64 -15.0323 21.7736 14.1431 -0.675549 0.544355 3.52331 -8.19327 26.6187 -21.6665 45.6788 -55.8697 -23.314 -0.0 0.0 0.0 -0.0 0.0 0.0 3.33653e-13 -3.49466e-13 -1.00158e-12 14.4259 48.2652 82.3795 -28.4291 -35.1 75.5034 -0.00104271 -0.343971 -0.0483128 -1.72831e-09 -2.96108e-08 -7.228e-09 -2.97203e-09 -5.10124e-08 -1.24872e-08 -1.7283e-09 -2.96107e-08 -7.22801e-09 7.73091 5.47488 0.417314 -1.72831e-09 -2.96107e-08 -7.22801e-09 2.90554 0.965183 0.102902 -1.7283e-09 -2.96107e-08 -7.228e-09 10.2786 0.731801 0.0259123 -1.72832e-09 -2.96107e-08 -7.228e-09 2.22167 -0.733487 -0.20892 3.336e-13 -3.49485e-13 -1.00191e-12 -55.416 36.1241 -36.9013 25.1757 -47.7122 -99.3138 0.746797 -23.776 3.54947 6.98779e-10 2.05818e-09 9.49663e-10 1.19208e-09 3.59056e-09 1.6588e-09 6.98777e-10 2.05818e-09 9.49668e-10 -7.73091 5.47488 -0.417314 6.98783e-10 2.05818e-09 9.49658e-10 -2.90554 0.965183 -0.102902 6.9878e-10 2.05818e-09 9.49662e-10 -10.2786 0.731801 -0.0259123 6.98789e-10 2.05818e-09 9.49654e-10 -2.22167 -0.733487 0.20892 -2.03217e-16 0.0 -3.88251e-19 -9.34876 -23.0584 -15.6808 -1.77153 67.2278 1.95355 -2.51721 -2.69441 -12.386 2.03217e-16 0.0 3.88251e-19 -6.82878 -36.9888 -0.837296 0.877108 55.3044 -0.787331 -2.89514 -17.458 -8.61913
-199.808 75.1976 -3.85329 173.949 58.974 -177.634 -15.2727 21.9801 14.155 -0.654942 0.385288 3.5093 -8.03591 26.724 -21.7502 45.649 -56.6138 -23.212 -0.0 0.0 0.0 -0.0 0.0 0.0 1.77099e-13 -4.21524e-13 -8.20431e-13 14.3957 49.3256 81.9856 -28.4211 -34.7983 75.0074 -0.00183072 -0.858004 -0.120575 -1.51359e-09 -1.36713e-08 -6.27113e-09 -2.60304e-09 -2.34749e-08 -1.08329e-08 -1.51358e-09 -1.36713e-08 -6.27114e-09 7.73091 5.47488 0.417314 -1.51358e-09 -1.36713e-08 -6.27113e-09 2.90554 0.965183 0.102902 -1.51358e-09 -1.36713e-08 -6.27113e-09 10.2786 0.731801 0.0259123 -1.51359e-09 -1.36713e-08 -6.27112e-09 2.22167 -0.733487 -0.20892 1.77032e-13 -4.21522e-13 -8.20754e-13 -56.6581 36.6328 -35.2566 25.2823 -47.5333 -98.9215 0.789409 -24.4003 3.65477 4.65852e-10 2.24631e-09 9.7873e-10 7.88994e-10 3.90678e-09 1.70333e-09 4.65848e-10 2.24631e-09 9.78741e-10 -7.73091 5.47488 -0.417314 4.65855e-10 2.2463e-09 9.78727e-10 -2.90554 0.965183 -0.102902 4.6585e-10 2.2463e-09 9.7873e-10 -10.2786 0.731801 -0.0259123 4.65858e-10 2.2463e-09 9.78722e-10 -2.22167 -0.733487 0.20892 -2.03217e-16 0.0 -3.88251e-19 -9.46493 -23.2514 -15.7808 -1.81953 67.6181 1.99729 -2.40164 -2.38644 -12.0942 2.03217e-16 0.0 3.88251e-19 -6.86891 -37.0438 -0.895302 0.888385 55.5073 -0.794155 -3.13287 -17.2658 -9.30994
-199.717 75.0673 -3.75048 173.759 59.0803 -177.708 -15.4974 22.1801 14.1405 -0.638973 0.228501 3.48884 -7.84241 26.8199 -21.8506 45.5202 -57.3933 -23.1808 -0.0 0.0 0.0 -0.0 0.0 0.0 -7.57897e-15 -4.63714e-13 -5.60567e-13 14.432 50.3885 81.572 -28.4081 -34.468 74.469 -0.00255801 -1.32619 -0.186419 -1.06595e-09 -4.16314e-09 -5.00027e-09 -1.83324e-09 -7.06264e-09 -8.63604e-09 -1.06595e-09 -4.16315e-09 -5.00028e-09 7.73091 5.47488 0.417314 -1.06595e-09 -4.16314e-09 -5.00027e-09 2.90554 0.965183 0.102902 -1.06595e-09 -4.16314e-09 -5.00027e-09 10.2786 0.731801 0.0259123 -1.06596e-09 -4.16315e-09 -5.00026e-09 2.22167 -0.733487 -0.20892 -7.66168e-15 -4.63691e-13 -5.60878e-13 -57.8617 37.1191 -33.6242 25.4053 -47.3296 -98.4643 0.831284 -24.9831 3.75433 9.9492e-11 2.36201e-09 9.51379e-10 1.55716e-10 4.09382e-09 1.64806e-09 9.94864e-11 2.36201e-09 9.51397e-10 -7.73091 5.47488 -0.417314 9.94935e-11 2.36201e-09 9.51378e-10 -2.90554 0.965183 -0.102902 9.94858e-11 2.36201e-09 9.51381e-10 -10.2786 0.731801 -0.0259123 9.94941e-11 2.36201e-09 9.51372e-10 -2.22167 -0.733487 0.20892 -2.03217e-16 0.0 -3.88251e-19 -9.59847 -23.4557 -15.9115 -1.87101 68.024 2.04467 -2.29006 -2.08911 -11.7928 2.03217e-16 0.0 3.88251e-19 -6.91782 -37.109 -0.967353 0.900257 55.7191 -0.801575 -3.36698 -17.0798 -9.99738
